<?xml version="1.0" standalone="no"?>
<!DOCTYPE svg PUBLIC "-//W3C//DTD SVG 20010904//EN"
 "http://www.w3.org/TR/2001/REC-SVG-20010904/DTD/svg10.dtd">
<svg version="1.0" xmlns="http://www.w3.org/2000/svg"
 width="70.000000pt" height="70.000000pt" viewBox="0 0 70.000000 70.000000"
 preserveAspectRatio="xMidYMid meet">
<metadata>
Created by potrace 1.11, written by Peter Selinger 2001-2013
</metadata>
<g transform="translate(0.000000,70.000000) scale(0.100000,-0.100000)"
fill="#000000" stroke="none">
<path d="M0 350 l0 -350 350 0 350 0 0 350 0 350 -350 0 -350 0 0 -350z m600
310 c0 -13 7 -20 20 -20 18 0 20 -7 20 -70 0 -63 -2 -70 -20 -70 -18 0 -20 -7
-20 -65 0 -63 -1 -65 -25 -65 -20 0 -25 -5 -25 -25 0 -23 -3 -25 -50 -25 -47
0 -50 2 -50 25 0 20 5 25 25 25 20 0 25 5 25 25 0 20 5 25 25 25 23 0 25 4 25
40 l0 40 -50 0 c-43 0 -50 -3 -50 -20 0 -13 -7 -20 -20 -20 -13 0 -20 -7 -20
-20 0 -15 -7 -20 -25 -20 -22 0 -25 4 -25 40 0 36 3 40 25 40 20 0 25 5 25 25
0 24 2 25 70 25 63 0 70 2 70 20 0 15 7 20 25 20 20 0 25 5 25 25 0 20 -5 25
-25 25 -18 0 -25 5 -25 20 0 15 7 20 25 20 18 0 25 -5 25 -20z m-290 -265 c0
-20 5 -25 25 -25 20 0 25 -5 25 -25 0 -20 5 -25 25 -25 18 0 25 -5 25 -20 0
-13 7 -20 20 -20 13 0 20 -7 20 -20 0 -18 -7 -20 -70 -20 -68 0 -70 -1 -70
-25 0 -20 -5 -25 -25 -25 -20 0 -25 -5 -25 -25 0 -16 -6 -25 -15 -25 -8 0 -15
-7 -15 -15 0 -9 -9 -15 -25 -15 -20 0 -25 -5 -25 -25 0 -23 -3 -25 -50 -25
l-50 0 0 40 c0 36 3 40 25 40 20 0 25 5 25 25 0 20 5 25 25 25 20 0 25 5 25
25 0 20 5 25 25 25 18 0 25 5 25 20 0 11 7 20 15 20 12 0 15 14 15 70 0 68 1
70 25 70 20 0 25 -5 25 -25z"/>
</g>
</svg>
